<svg version="1.1" preserveAspectRatio="none" xmlns="http://www.w3.org/2000/svg" width="500" height="500" viewBox="0 0 500 500"><rect width="100%" height="100%" fill="#F7F4F2" fill-opacity="1"/><svg viewBox="102.61 161.7854 375.0326 274.1584" width="333" height="243.4314968885371" x="83.5px" y="128.2843px" xmlns="http://www.w3.org/2000/svg" xmlns:xlink="http://www.w3.org/1999/xlink" preserveAspectRatio="none"><defs></defs><style>.companyName {fill:#161616;fill-opacity:1;}.icon1 {fill:#161616;fill-opacity:1;}.icon2 {fill:#E5B7D2;fill-opacity:1;}.icon3 {fill:#848282;fill-opacity:1;}.icon3-str {stroke:#848282;stroke-opacity:1;}.text {fill:#161616;fill-opacity:1;}</style><g opacity="1" transform="rotate(0 226.0997 413.5438)">
<svg width="128.0533" height="22.4" x="226.0997" y="413.5438" version="1.1" preserveAspectRatio="none" viewBox="1.16 -29.6 171.48 30.000000000000004">
  <g transform="matrix(1 0 0 1 0 0)" class="text"><path id="id-6izo4zJp9" d="M9.92 0.40L9.92 0.40Q7.48 0.40 5.16-0.40Q2.84-1.20 1.16-2.72L1.16-2.72L2.40-4.56Q4.16-3.12 5.98-2.40Q7.80-1.68 9.88-1.68L9.88-1.68Q12.40-1.68 13.90-2.70Q15.40-3.72 15.40-5.60L15.40-5.60Q15.40-6.48 15-7.06Q14.60-7.64 13.82-8.08Q13.04-8.52 11.86-8.86Q10.68-9.20 9.12-9.56L9.12-9.56Q7.32-10 6-10.44Q4.68-10.88 3.82-11.44Q2.96-12 2.54-12.82Q2.12-13.64 2.12-14.88L2.12-14.88Q2.12-16.44 2.74-17.64Q3.36-18.84 4.42-19.62Q5.48-20.40 6.90-20.80Q8.32-21.20 9.92-21.20L9.92-21.20Q12.32-21.20 14.28-20.42Q16.24-19.64 17.44-18.36L17.44-18.36L16.12-16.76Q14.96-17.96 13.30-18.56Q11.64-19.16 9.84-19.16L9.84-19.16Q8.76-19.16 7.84-18.94Q6.92-18.72 6.22-18.24Q5.52-17.76 5.12-17.02Q4.72-16.28 4.72-15.28L4.72-15.28Q4.72-14.44 5-13.92Q5.28-13.40 5.92-13.02Q6.56-12.64 7.54-12.34Q8.52-12.04 9.92-11.72L9.92-11.72Q11.92-11.24 13.44-10.76Q14.96-10.28 15.98-9.64Q17-9 17.52-8.08Q18.04-7.16 18.04-5.84L18.04-5.84Q18.04-2.96 15.84-1.28Q13.64 0.40 9.92 0.40Z M32.96 0.40L32.96 0.40Q30.68 0.40 28.80-0.46Q26.92-1.32 25.54-2.80Q24.16-4.28 23.40-6.24Q22.64-8.20 22.64-10.36L22.64-10.36Q22.64-12.56 23.42-14.52Q24.20-16.48 25.58-17.96Q26.96-19.44 28.84-20.32Q30.72-21.20 32.96-21.20L32.96-21.20Q35.20-21.20 37.10-20.32Q39-19.44 40.38-17.96Q41.76-16.48 42.54-14.52Q43.32-12.56 43.32-10.36L43.32-10.36Q43.32-8.20 42.56-6.24Q41.80-4.28 40.42-2.80Q39.04-1.32 37.14-0.46Q35.24 0.40 32.96 0.40ZM25.40-10.32L25.40-10.32Q25.40-8.56 26-7.06Q26.60-5.56 27.62-4.42Q28.64-3.28 30.02-2.64Q31.40-2 32.96-2L32.96-2Q34.52-2 35.90-2.66Q37.28-3.32 38.32-4.46Q39.36-5.60 39.96-7.12Q40.56-8.64 40.56-10.40L40.56-10.40Q40.56-12.12 39.96-13.66Q39.36-15.20 38.32-16.34Q37.28-17.48 35.90-18.14Q34.52-18.80 32.96-18.80L32.96-18.80Q31.40-18.80 30.04-18.14Q28.68-17.48 27.64-16.32Q26.60-15.16 26-13.62Q25.40-12.08 25.40-10.32Z M52.88 0L50.16 0L50.16-18.68L47.28-18.68L47.28-20.84L50.16-20.84L50.16-21.40Q50.16-25.24 51.80-27.42Q53.44-29.60 56.28-29.60L56.28-29.60Q57.52-29.60 58.68-29.24Q59.84-28.88 60.68-28.28L60.68-28.28L59.84-26.32Q59.28-26.76 58.46-27Q57.64-27.24 56.80-27.24L56.80-27.24Q54.88-27.24 53.88-25.76Q52.88-24.28 52.88-21.48L52.88-21.48L52.88-20.84L58.64-20.84L58.64-18.68L52.88-18.68L52.88 0Z M73.24-3.20L73.96-1Q73.72-0.88 73.26-0.68Q72.80-0.48 72.20-0.28Q71.60-0.08 70.84 0.08Q70.08 0.24 69.24 0.24L69.24 0.24Q68.36 0.24 67.56 0Q66.76-0.24 66.16-0.74Q65.56-1.24 65.20-2Q64.84-2.76 64.84-3.76L64.84-3.76L64.84-18.68L61.96-18.68L61.96-20.84L64.84-20.84L64.84-27.88L67.56-27.88L67.56-20.84L72.36-20.84L72.36-18.68L67.56-18.68L67.56-4.52Q67.64-3.36 68.38-2.82Q69.12-2.28 70.08-2.28L70.08-2.28Q71.24-2.28 72.12-2.66Q73.00-3.04 73.24-3.20L73.24-3.20Z M97.64-2.80L105.20-20.84L107.88-20.84L98.92 0L96.68 0L92.20-10.64L87.76 0L85.52 0L76.56-20.84L79.20-20.84L86.80-2.80L90.76-12.32L87.20-20.80L89.48-20.80L92.20-14L94.92-20.80L97.24-20.80L93.68-12.32L97.64-2.80Z M117.80 0.40L117.80 0.40Q116.32 0.40 115.06-0.10Q113.80-0.60 112.86-1.48Q111.92-2.36 111.40-3.54Q110.88-4.72 110.88-6.08L110.88-6.08Q110.88-7.44 111.52-8.60Q112.16-9.76 113.32-10.60Q114.48-11.44 116.08-11.90Q117.68-12.36 119.60-12.36L119.60-12.36Q121.20-12.36 122.84-12.08Q124.48-11.80 125.76-11.28L125.76-11.28L125.76-13.16Q125.76-15.92 124.20-17.54Q122.64-19.16 119.88-19.16L119.88-19.16Q118.28-19.16 116.60-18.52Q114.92-17.88 113.20-16.68L113.20-16.68L112.24-18.48Q116.28-21.20 120.08-21.20L120.08-21.20Q124.00-21.20 126.24-19Q128.48-16.80 128.48-12.92L128.48-12.92L128.48-3.52Q128.48-2.40 129.48-2.40L129.48-2.40L129.48 0Q128.80 0.12 128.44 0.12L128.44 0.12Q127.40 0.12 126.82-0.40Q126.24-0.92 126.20-1.84L126.20-1.84L126.12-3.48Q124.68-1.60 122.50-0.60Q120.32 0.40 117.80 0.40ZM118.44-1.68L118.44-1.68Q120.56-1.68 122.34-2.48Q124.12-3.28 125.04-4.60L125.04-4.60Q125.40-4.96 125.58-5.38Q125.76-5.80 125.76-6.16L125.76-6.16L125.76-9.56Q124.40-10.08 122.94-10.36Q121.48-10.64 119.96-10.64L119.96-10.64Q117.08-10.64 115.28-9.44Q113.48-8.24 113.48-6.28L113.48-6.28Q113.48-5.32 113.86-4.48Q114.24-3.64 114.90-3.02Q115.56-2.40 116.48-2.04Q117.40-1.68 118.44-1.68Z M146.36-20.92L146.36-18.44Q143.60-18.36 141.56-16.92Q139.52-15.48 138.68-12.96L138.68-12.96L138.68 0L135.96 0L135.96-20.84L138.52-20.84L138.52-15.84Q139.68-18.24 141.64-19.60Q143.60-20.96 145.84-20.96L145.84-20.96Q146.16-20.96 146.36-20.92L146.36-20.92Z M159.56 0.40L159.56 0.40Q157.28 0.40 155.38-0.46Q153.48-1.32 152.08-2.82Q150.68-4.32 149.90-6.28Q149.12-8.24 149.12-10.48L149.12-10.48Q149.12-12.68 149.90-14.62Q150.68-16.56 152.06-18.02Q153.44-19.48 155.36-20.34Q157.28-21.20 159.52-21.20L159.52-21.20Q161.80-21.20 163.70-20.34Q165.60-19.48 166.96-18Q168.32-16.52 169.08-14.60Q169.84-12.68 169.84-10.52L169.84-10.52Q169.84-10.20 169.84-9.88Q169.84-9.56 169.80-9.44L169.80-9.44L151.96-9.44Q152.08-7.76 152.74-6.34Q153.40-4.92 154.44-3.88Q155.48-2.84 156.82-2.26Q158.16-1.68 159.68-1.68L159.68-1.68Q160.68-1.68 161.68-1.96Q162.68-2.24 163.52-2.72Q164.36-3.20 165.04-3.90Q165.72-4.60 166.08-5.44L166.08-5.44L168.44-4.80Q167.96-3.64 167.08-2.70Q166.20-1.76 165.04-1.06Q163.88-0.36 162.48 0.02Q161.08 0.40 159.56 0.40ZM151.92-11.52L167.24-11.52Q167.12-13.20 166.46-14.58Q165.80-15.96 164.78-16.96Q163.76-17.96 162.42-18.52Q161.08-19.08 159.56-19.08L159.56-19.08Q158.04-19.08 156.68-18.52Q155.32-17.96 154.30-16.96Q153.28-15.96 152.66-14.56Q152.04-13.16 151.92-11.52L151.92-11.52Z"/></g>
</svg>
</g><g opacity="1" transform="rotate(0 102.61 315.5438)">
<svg width="375.0326" height="80" x="102.61" y="315.5438" version="1.1" preserveAspectRatio="none" viewBox="2.7539 -29.5508 142.28520000000003 30.3516">
  <g transform="matrix(1 0 0 1 0 0)" class="companyName"><path id="id-D6z1nYkh9" d="M5.33-5.37L5.33-5.37L5.08-4.84Q5.08-4.28 6.67-3.76Q8.26-3.24 10.17-3.24Q12.07-3.24 14.36-3.81Q16.64-4.38 18.33-5.20Q20.02-6.02 21.12-6.91Q22.23-7.81 22.23-8.48L22.23-8.48Q22.23-9.32 20.27-10.04Q18.32-10.76 14.60-11.63Q10.88-12.50 9.15-13.83Q7.42-15.16 7.42-17.06Q7.42-18.96 8.79-20.70Q10.16-22.44 12.35-23.79Q14.55-25.14 17.15-26.19L17.15-26.19Q22.52-28.36 27.11-28.36L27.11-28.36Q28.87-28.36 30.21-28.05L30.21-28.05Q32.79-27.44 32.79-26.45Q32.79-25.45 32.62-25.09Q32.44-24.73 32.33-24.61Q32.23-24.49 32.06-24.38Q31.89-24.26 31.82-24.20L31.82-24.20Q30.96-23.48 27.11-23.30L27.11-23.30Q25.78-23.24 25.66-23.16Q25.55-23.09 25.46-23.09Q25.37-23.09 25.25-23.24Q25.14-23.40 25.14-23.75Q25.14-24.10 25.90-25.04L25.90-25.04Q23.52-24.90 20.81-23.95Q18.11-22.99 16.11-21.79Q14.12-20.59 12.79-19.42Q11.46-18.26 11.46-17.78Q11.46-17.30 11.76-16.99L11.76-16.99Q12.58-16.11 16.31-15.16L16.31-15.16Q20.18-14.16 21.46-13.55Q22.75-12.95 23.60-12.40Q24.45-11.86 24.96-11.29L24.96-11.29Q26.15-9.92 26.15-8.52Q26.15-7.11 25.40-5.88Q24.65-4.65 23.13-3.50Q21.62-2.34 19.57-1.45L19.57-1.45Q15.08 0.57 8.87 0.57L8.87 0.57Q4.34 0.57 3.09-1.84L3.09-1.84Q2.75-2.44 2.75-3.10Q2.75-3.75 3.06-4.28Q3.36-4.80 3.79-5.08L3.79-5.08Q4.63-5.61 4.98-5.61Q5.33-5.61 5.33-5.37Z M44.49-6.13L44.49-6.13Q44.86-6.13 44.94-5.57Q45.02-5 45.02-4.39Q45.02-3.79 44.90-3.55L44.90-3.55Q44.34-2.46 42.42-0.89Q40.51 0.68 38.79 0.68L38.79 0.68Q37.73 0.68 36.84 0.05Q35.94-0.59 35.94-2.17Q35.94-3.75 36.78-5.27L36.78-5.27Q31.93 0.80 29.18 0.80L29.18 0.80Q28.09 0.80 27.41 0.02Q26.74-0.76 26.74-1.59Q26.74-2.42 26.97-3.31Q27.21-4.20 27.47-4.90Q27.73-5.61 28.25-6.64Q28.77-7.68 29.02-8.14Q29.28-8.61 29.83-9.56Q30.39-10.51 31.30-12.11Q32.21-13.71 32.80-14.48Q33.40-15.25 33.96-15.26Q34.53-15.27 34.96-14.80Q35.39-14.34 35.39-14.04Q35.39-13.75 34.08-11.41L34.08-11.41Q30.21-4.41 30.21-3.26L30.21-3.26Q30.21-2.97 30.43-2.97L30.43-2.97Q31.37-2.97 35.10-7.03Q38.83-11.09 39.41-12.24Q40-13.38 40.56-14.16Q41.11-14.94 41.39-15.12L41.39-15.12Q42.23-15.66 43.55-15.70L43.55-15.70Q43.77-15.70 43.89-15.68Q44.00-15.66 44.16-15.35Q44.32-15.04 44.32-14.86L44.32-14.86Q44.14-14.32 42.76-11.95Q41.39-9.59 41.23-9.28L41.23-9.28Q38.93-4.51 38.93-3.07L38.93-3.07Q38.93-2.25 39.55-2.25L39.55-2.25Q40.68-2.40 42.29-4.06L42.29-4.06Q42.87-4.67 43.45-5.29Q44.02-5.92 44.16-6.03Q44.30-6.13 44.49-6.13Z M59.84-27.87L59.84-27.87Q55.72-21.68 51.82-14.92L51.82-14.92Q52.71-15.39 53.84-15.60Q54.96-15.80 55.42-15.80Q55.88-15.80 56.21-15.77Q56.54-15.74 57.06-15.56Q57.58-15.37 57.95-15.04L57.95-15.04Q58.85-14.24 58.85-12.77Q58.85-11.31 58.06-9.56Q57.27-7.81 55.91-6.05Q54.55-4.30 52.94-2.78Q51.33-1.27 49.47-0.31Q47.62 0.64 46.02 0.64L46.02 0.64Q45.27 0.64 44.31-0.31Q43.34-1.27 43.34-2.83Q43.34-4.39 44.69-7.68Q46.04-10.96 47.96-14.35Q49.88-17.73 51.88-20.96Q53.89-24.18 55.29-26.23Q56.70-28.28 57.01-28.59Q57.32-28.91 58.15-29.12Q58.98-29.34 59.59-29.33Q60.20-29.32 60.20-28.77L60.20-28.77Q60.20-28.42 59.84-27.87ZM54.57-9.12L54.57-9.12Q55.37-10.53 55.37-11.68Q55.37-12.83 54.64-12.83Q53.91-12.83 52.39-12.20Q50.88-11.56 50.66-11.56Q50.45-11.56 50.10-11.91L50.10-11.91Q46.29-5.06 46.29-3.16L46.29-3.16Q46.29-2.29 46.86-2.29L46.86-2.29Q48.20-2.29 50.74-4.54Q53.28-6.80 54.57-9.12Z M75.86-5.76L75.86-5.76Q76.00-4.86 76.00-4.35Q76.00-3.83 75.81-3.45Q75.63-3.07 74.99-2.37Q74.36-1.68 73.48-0.98L73.48-0.98Q71.33 0.72 69.08 0.72L69.08 0.72Q65.86 0.72 65.86-2.13L65.86-2.13Q65.86-4.61 70.18-12.01L70.18-12.01Q70.33-12.29 70.39-12.40L70.39-12.40Q68.89-11.35 64.64-6.65Q60.39-1.95 58.98 0L58.98 0Q58.87 0.18 58.40 0.39Q57.93 0.61 57.67 0.61Q57.40 0.61 57.10 0.44Q56.80 0.27 56.72 0.27L56.72 0.27Q56.46 0.27 56.46 0.11Q56.46-0.06 57.16-1.69Q57.85-3.32 58.98-5.74L58.98-5.74Q62.09-12.42 68.22-23.13L68.22-23.13Q70.37-26.88 71.58-28.44L71.58-28.44Q72.44-29.55 74.47-29.55L74.47-29.55Q74.90-29.55 74.96-29.30Q75.02-29.04 75.02-28.75Q75.02-28.46 74.90-28.16L74.90-28.16L72.81-24.90Q66.60-15.21 63.46-8.85L63.46-8.85Q66.50-12.56 69.38-14.57L69.38-14.57Q71.15-15.84 72.04-15.84Q72.93-15.84 73.65-15.56Q74.38-15.27 74.38-14.20L74.38-14.20Q74.38-13.81 73.11-11.31L73.11-11.31Q69.30-3.81 69.30-2.98Q69.30-2.15 69.98-2.15L69.98-2.15Q70.98-2.15 73.05-4.08L73.05-4.08Q74.61-5.55 75.02-5.96L75.02-5.96Q75.25-6.13 75.45-6.13L75.45-6.13Q75.82-6.13 75.86-5.76Z M89.30-14.84L89.30-14.84Q90.78-14.84 90.78-13.83L90.78-13.83Q90.78-13.28 90.53-13.03Q90.27-12.77 89.44-11.34Q88.61-9.90 87.61-7.67Q86.60-5.43 86.31-3.85L86.31-3.85Q86.25-3.65 86.25-3.30L86.25-3.30Q86.25-2.23 86.84-2.23Q87.42-2.23 88.22-2.78Q89.02-3.34 89.65-3.97Q90.27-4.61 90.87-5.27Q91.46-5.94 91.58-6.04Q91.70-6.13 91.93-6.13L91.93-6.13Q92.30-6.13 92.38-5.57Q92.46-5 92.46-4.39Q92.46-3.79 92.34-3.55L92.34-3.55Q91.78-2.44 89.85-0.88Q87.93 0.68 86.36 0.68Q84.79 0.68 84.04-0.27Q83.30-1.23 83.30-2.39Q83.30-3.55 83.69-4.43L83.69-4.43Q82.07-2.32 79.97-0.86Q77.87 0.61 76.54 0.61Q75.21 0.61 74.38-0.20L74.38-0.20Q73.30-1.19 73.30-2.96Q73.30-4.73 74.09-6.51Q74.88-8.30 76.17-9.78Q77.46-11.25 79.00-12.46L79.00-12.46Q82.25-15 84.98-15L84.98-15Q86.04-15 86.70-14.65Q87.36-14.30 87.54-13.77L87.54-13.77Q88.01-14.47 88.33-14.66Q88.65-14.84 89.30-14.84ZM86.70-12.68L86.70-12.68Q83.36-12.68 79.79-8.96L79.79-8.96Q78.52-7.64 77.45-5.78Q76.39-3.93 76.39-3.24Q76.39-2.56 76.78-2.56L76.78-2.56Q77.32-2.56 79.82-4.72Q82.32-6.88 83.14-7.89L83.14-7.89Q84.04-9.02 86.70-12.68Z M92.83-3.91L92.83-3.91L92.81-3.59Q92.81-3.11 93.18-2.75Q93.55-2.40 93.87-2.40L93.87-2.40Q96.21-2.40 98.02-3.11Q99.82-3.81 99.82-4.51L99.82-4.51Q99.82-4.84 99.17-5.09Q98.52-5.33 96.96-5.69Q95.41-6.05 94.71-6.26Q94.00-6.46 93.59-6.64Q93.18-6.82 92.75-7.13L92.75-7.13Q91.84-7.77 91.84-9.05Q91.84-10.33 92.78-11.59Q93.73-12.85 95.16-13.75Q96.58-14.65 98.22-15.33L98.22-15.33Q101.46-16.68 103.67-16.68L103.67-16.68Q105.84-16.68 106.35-15.74L106.35-15.74Q106.50-15.41 106.50-15L106.50-15L106.50-14.86Q106.50-13.83 106.06-13.24Q105.63-12.66 104.68-12.19Q103.73-11.72 103.17-11.72Q102.62-11.72 102.47-11.80Q102.32-11.88 102.23-12.00Q102.13-12.13 101.98-12.19Q101.84-12.25 101.84-12.48Q101.84-12.71 102.03-12.96Q102.23-13.20 102.30-13.48L102.30-13.48Q101.02-13.42 99.61-12.88Q98.20-12.34 97.20-11.68Q96.19-11.02 95.53-10.41Q94.86-9.80 94.86-9.52Q94.86-9.24 95.76-9.06L95.76-9.06Q99.80-8.26 101.07-7.68Q102.34-7.09 102.83-6.35Q103.32-5.61 103.32-5L103.32-5Q103.32-3.75 102.32-2.64Q101.33-1.52 99.86-0.82L99.86-0.82Q96.72 0.72 94.38 0.72Q92.05 0.72 91.16 0.01Q90.27-0.70 90.27-1.68Q90.27-2.66 90.77-3.49Q91.27-4.32 92.05-4.32Q92.83-4.32 92.83-3.91Z M122.58-5.76L122.58-5.76Q122.71-4.86 122.71-4.35Q122.71-3.83 122.53-3.45Q122.34-3.07 121.71-2.37Q121.07-1.68 120.20-0.98L120.20-0.98Q118.05 0.72 115.80 0.72L115.80 0.72Q112.58 0.72 112.58-2.13L112.58-2.13Q112.58-4.61 116.89-12.01L116.89-12.01Q117.05-12.29 117.11-12.40L117.11-12.40Q115.61-11.35 111.36-6.65Q107.11-1.95 105.70 0L105.70 0Q105.59 0.18 105.12 0.39Q104.65 0.61 104.38 0.61Q104.12 0.61 103.82 0.44Q103.52 0.27 103.44 0.27L103.44 0.27Q103.18 0.27 103.18 0.11Q103.18-0.06 103.88-1.69Q104.57-3.32 105.70-5.74L105.70-5.74Q108.81-12.42 114.94-23.13L114.94-23.13Q117.09-26.88 118.30-28.44L118.30-28.44Q119.16-29.55 121.19-29.55L121.19-29.55Q121.62-29.55 121.68-29.30Q121.74-29.04 121.74-28.75Q121.74-28.46 121.62-28.16L121.62-28.16L119.53-24.90Q113.32-15.21 110.18-8.85L110.18-8.85Q113.22-12.56 116.09-14.57L116.09-14.57Q117.87-15.84 118.76-15.84Q119.65-15.84 120.37-15.56Q121.09-15.27 121.09-14.20L121.09-14.20Q121.09-13.81 119.82-11.31L119.82-11.31Q116.02-3.81 116.02-2.98Q116.02-2.15 116.70-2.15L116.70-2.15Q117.70-2.15 119.77-4.08L119.77-4.08Q121.33-5.55 121.74-5.96L121.74-5.96Q121.97-6.13 122.17-6.13L122.17-6.13Q122.54-6.13 122.58-5.76Z M133.83-21.45L133.83-21.45Q133.83-20.33 132.79-19.21Q131.76-18.09 130.63-18.09Q129.51-18.09 129.51-19.26Q129.51-20.43 130.50-21.49Q131.48-22.56 132.68-22.56L132.68-22.56Q133.20-22.56 133.52-22.27Q133.83-21.97 133.83-21.45ZM130.66-4.39L130.66-4.39Q130.66-3.81 130.55-3.55L130.55-3.55Q129.59-1.60 127.50-0.40Q125.41 0.80 123.87 0.80Q122.32 0.80 121.21-0.23Q120.10-1.27 120.10-2.34Q120.10-3.42 121.17-5.47Q122.25-7.52 123.32-9.26Q124.39-11.00 124.39-11.14Q124.39-11.29 123.99-11.72Q123.59-12.15 123.59-12.35Q123.59-12.56 124.40-13.43Q125.21-14.30 126.38-15.15Q127.54-16.00 128.15-16.00Q128.77-16.00 129.26-15.45Q129.75-14.90 129.75-14.45Q129.75-14.00 125.10-6.00L125.10-6.00Q125.04-5.88 124.78-5.48Q124.51-5.08 124.37-4.81Q124.22-4.55 124.02-4.18L124.02-4.18Q123.63-3.40 123.63-2.87L123.63-2.87Q123.63-2.21 124.53-2.21Q125.43-2.21 126.40-2.82Q127.36-3.44 128.07-4.18L128.07-4.18Q129.90-6.15 130.16-6.15L130.16-6.15Q130.66-6.15 130.66-4.39Z M131.37-3.91L131.37-3.91L131.35-3.59Q131.35-3.11 131.72-2.75Q132.09-2.40 132.40-2.40L132.40-2.40Q134.75-2.40 136.55-3.11Q138.36-3.81 138.36-4.51L138.36-4.51Q138.36-4.84 137.71-5.09Q137.05-5.33 135.50-5.69Q133.95-6.05 133.24-6.26Q132.54-6.46 132.13-6.64Q131.72-6.82 131.29-7.13L131.29-7.13Q130.37-7.77 130.37-9.05Q130.37-10.33 131.32-11.59Q132.27-12.85 133.69-13.75Q135.12-14.65 136.76-15.33L136.76-15.33Q140-16.68 142.21-16.68L142.21-16.68Q144.38-16.68 144.88-15.74L144.88-15.74Q145.04-15.41 145.04-15L145.04-15L145.04-14.86Q145.04-13.83 144.60-13.24Q144.16-12.66 143.21-12.19Q142.27-11.72 141.71-11.72Q141.15-11.72 141.01-11.80Q140.86-11.88 140.76-12.00Q140.66-12.13 140.52-12.19Q140.37-12.25 140.37-12.48Q140.37-12.71 140.57-12.96Q140.76-13.20 140.84-13.48L140.84-13.48Q139.55-13.42 138.14-12.88Q136.74-12.34 135.73-11.68Q134.73-11.02 134.06-10.41Q133.40-9.80 133.40-9.52Q133.40-9.24 134.30-9.06L134.30-9.06Q138.34-8.26 139.61-7.68Q140.88-7.09 141.37-6.35Q141.86-5.61 141.86-5L141.86-5Q141.86-3.75 140.86-2.64Q139.86-1.52 138.40-0.82L138.40-0.82Q135.25 0.72 132.92 0.72Q130.59 0.72 129.70 0.01Q128.81-0.70 128.81-1.68Q128.81-2.66 129.31-3.49Q129.80-4.32 130.59-4.32Q131.37-4.32 131.37-3.91Z"/></g>
</svg>
</g><g opacity="1" transform="rotate(0 215.1198 161.7854)">
<svg width="150.0131" height="123.7584" x="215.1198" y="161.7854" version="1.1" preserveAspectRatio="none" viewBox="20.000520706176758 34.00090026855469 160.00051879882812 131.997802734375">
  <g transform="matrix(1 0 0 1 0 0)"><g><path d="M172.19 40.185c-2.66-2.754-5.119-4.274-7.327-4.551a11.233 11.233 0 0 0-5.881-1.633l-123.952.081c-6.324.012-11.535 5.036-11.729 11.221l-3.298 105.12c-.03.992.213 1.937.651 2.791.004.009.003.02.007.029.675 1.425 6.816 13.76 15.162 12.69l134.836-.089c.104 0 .208-.002.311-.008 1.37-.071 2.616-.627 3.605-1.474.038-.03.083-.043.12-.076.02-.018.027-.044.046-.063 1.151-1.057 1.908-2.532 1.959-4.178l3.298-105.12c.13-4.188-3.927-10.722-7.808-14.74zm-144.447 5.26c.114-3.681 3.178-6.698 6.91-6.893a7.88 7.88 0 0 1 .38-.011l123.954-.082c1.894-.001 3.638.723 4.911 2.04a6.429 6.429 0 0 1 1.806 4.711l-.513 16.366-137.957.09.509-16.221zm-.649 20.681 137.955-.09-2.645 84.293c-.024.804-.757 1.432-1.599 1.481l-134.994.089c-.396 0-.758-.147-1.016-.415a1.232 1.232 0 0 1-.352-.92l2.651-84.438zm8.229 95.375c-2.623.437-5.435-2.281-7.564-5.143l133.05-.087c.104 0 .208-.002.311-.008.93-.048 1.797-.333 2.576-.762l5.352 5.886-133.385.088a1.777 1.777 0 0 0-.34.026zm136.982-3.149-5.748-6.323a5.798 5.798 0 0 0 .291-1.558l3.298-105.12c.008-.268-.004-.534-.014-.799 3.234 3.779 5.484 8.301 5.423 10.234l-3.25 103.566zm-96.554-55.35 78.939-.89a2.228 2.228 0 0 0 2.196-2.166l.597-20.833a2.24 2.24 0 0 0-.637-1.628 2.22 2.22 0 0 0-1.609-.666l-78.941.89c-1.157.036-2.162.971-2.196 2.166l-.595 20.833a2.223 2.223 0 0 0 2.246 2.294zm2.73-20.856 74.494-.84-.469 16.37-74.493.84.468-16.37zm-3.777 56.275 78.939-.89a2.228 2.228 0 0 0 2.196-2.166l.597-20.835a2.24 2.24 0 0 0-.637-1.628 2.22 2.22 0 0 0-1.609-.666l-78.939.892c-1.175-.012-2.162.969-2.196 2.166l-.597 20.833a2.223 2.223 0 0 0 2.246 2.294zm2.732-20.857 74.492-.841-.469 16.372-74.493.84.47-16.371zm-42.717 9.822 29.568.129.076-.002a1.334 1.334 0 0 0 1.26-1.268l.317-6.267a1.336 1.336 0 0 0-1.326-1.407l-29.568-.129c-.687.015-1.301.556-1.337 1.27l-.317 6.266c-.018.366.112.723.364.988.251.267.598.418.963.42zm1.59-6.261 26.9.118-.183 3.59-26.9-.118.183-3.59zm-1.617-28.986 29.567-.122a1.337 1.337 0 0 0 1.327-1.282l.265-6.269a1.344 1.344 0 0 0-.372-.984 1.325 1.325 0 0 0-.965-.41l-29.567.122a1.355 1.355 0 0 0-1.328 1.282l-.265 6.269a1.333 1.333 0 0 0 1.338 1.394zm1.539-6.274 26.898-.11-.153 3.592-26.899.11.154-3.592zm45.43-29.089a7.57 7.57 0 0 0 .216-.015c2.962-.259 5.572-2.744 5.943-5.656v-.002c.295-2.327-.942-4.704-3.23-6.2-2.363-1.545-5.142-1.716-7.254-.439-1.837 1.109-3.025 3.239-3.025 5.425.001 2.041 1.005 4.048 2.681 5.367 1.341 1.057 3.031 1.605 4.669 1.52zm-2.949-10.017a3.259 3.259 0 0 1 1.543-.466c1.047-.055 2.096.341 2.879.852 1.117.73 2.239 2.066 2.042 3.622-.21 1.655-1.827 3.178-3.528 3.326a4.382 4.382 0 0 1-3.01-.943c-1.038-.817-1.659-2.037-1.66-3.262-.001-1.245.695-2.502 1.734-3.129zM62.81 56.788a8.87 8.87 0 0 0 .222-.015c2.964-.259 5.574-2.744 5.943-5.656.295-2.327-.942-4.704-3.228-6.2-2.365-1.548-5.144-1.716-7.256-.44-1.839 1.111-3.025 3.241-3.024 5.423 0 2.041 1.002 4.048 2.681 5.372 1.345 1.054 3.032 1.601 4.662 1.516zm-2.945-10.017a3.27 3.27 0 0 1 1.545-.466c1.049-.055 2.098.341 2.88.853 1.115.731 2.237 2.066 2.04 3.622-.208 1.654-1.826 3.176-3.53 3.325-1.012.095-2.13-.254-3.006-.941-1.04-.818-1.661-2.039-1.66-3.265-.002-1.246.695-2.502 1.731-3.128zm-14.879 10.03c.073-.004.144-.009.217-.015 2.964-.259 5.574-2.744 5.943-5.658.295-2.327-.942-4.704-3.23-6.2-2.364-1.548-5.141-1.716-7.256-.439-1.835 1.111-3.022 3.239-3.022 5.425.001 2.04 1.005 4.046 2.681 5.367 1.341 1.056 3.031 1.605 4.667 1.52zm-2.949-10.017a3.26 3.26 0 0 1 1.545-.466c1.047-.055 2.096.339 2.878.851 1.115.731 2.237 2.066 2.04 3.622-.21 1.655-1.826 3.178-3.528 3.326-1.037.118-2.133-.252-3.007-.943-1.04-.818-1.661-2.039-1.661-3.262 0-1.244.696-2.502 1.733-3.128z" data-color="1" class="icon1"></path></g></g>
</svg>
</g></svg></svg>